<svg width="10" height="10" viewBox="0 0 10 10" fill="none" xmlns="http://www.w3.org/2000/svg">
<g clip-path="url(#clip0_73_651)">
<path d="M2.94665 0.269146C2.79957 -0.0861346 2.41182 -0.275235 2.04125 -0.174L0.360357 0.284427C0.0279983 0.376112 -0.203125 0.677909 -0.203125 1.02173C-0.203125 5.74734 3.62856 9.57902 8.35417 9.57902C8.69799 9.57902 8.99979 9.3479 9.09147 9.01554L9.5499 7.33464C9.65113 6.96408 9.46203 6.57633 9.10675 6.42925L7.27305 5.66521C6.9617 5.53532 6.60069 5.62509 6.38866 5.88678L5.61698 6.82846C4.27226 6.1924 3.1835 5.10363 2.54743 3.75892L3.48912 2.98914C3.7508 2.77521 3.84058 2.41611 3.71069 2.10476L2.94665 0.271056V0.269146Z" fill="white"/>
</g>
<defs>
<clipPath id="clip0_73_651">
<path d="M0 0H9.375V9.375H0V0Z" fill="white"/>
</clipPath>
</defs>
</svg>
