<svg width="16" height="13" viewBox="0 0 16 13" fill="none" xmlns="http://www.w3.org/2000/svg">
<g clip-path="url(#clip0_157_10507)">
<path d="M3.51562 0C4.03363 0 4.53041 0.205775 4.89669 0.572057C5.26297 0.938339 5.46875 1.43512 5.46875 1.95312C5.46875 2.47113 5.26297 2.96791 4.89669 3.33419C4.53041 3.70047 4.03363 3.90625 3.51562 3.90625C2.99762 3.90625 2.50084 3.70047 2.13456 3.33419C1.76828 2.96791 1.5625 2.47113 1.5625 1.95312C1.5625 1.43512 1.76828 0.938339 2.13456 0.572057C2.50084 0.205775 2.99762 0 3.51562 0ZM12.5 0C13.018 0 13.5148 0.205775 13.8811 0.572057C14.2473 0.938339 14.4531 1.43512 14.4531 1.95312C14.4531 2.47113 14.2473 2.96791 13.8811 3.33419C13.5148 3.70047 13.018 3.90625 12.5 3.90625C11.982 3.90625 11.4852 3.70047 11.1189 3.33419C10.7527 2.96791 10.5469 2.47113 10.5469 1.95312C10.5469 1.43512 10.7527 0.938339 11.1189 0.572057C11.4852 0.205775 11.982 0 12.5 0ZM0 7.29248C0 5.85449 1.16699 4.6875 2.60498 4.6875H3.64746C4.03564 4.6875 4.4043 4.77295 4.73633 4.92432C4.70459 5.1001 4.68994 5.2832 4.68994 5.46875C4.68994 6.40137 5.1001 7.23877 5.74707 7.8125C5.74219 7.8125 5.7373 7.8125 5.72998 7.8125H0.52002C0.234375 7.8125 0 7.57813 0 7.29248ZM9.89502 7.8125C9.89014 7.8125 9.88525 7.8125 9.87793 7.8125C10.5273 7.23877 10.9351 6.40137 10.9351 5.46875C10.9351 5.2832 10.918 5.10254 10.8887 4.92432C11.2207 4.77051 11.5894 4.6875 11.9775 4.6875H13.02C14.458 4.6875 15.625 5.85449 15.625 7.29248C15.625 7.58057 15.3906 7.8125 15.105 7.8125H9.89502ZM5.46875 5.46875C5.46875 4.84715 5.71568 4.25101 6.15522 3.81147C6.59476 3.37193 7.1909 3.125 7.8125 3.125C8.4341 3.125 9.03024 3.37193 9.46978 3.81147C9.90932 4.25101 10.1562 4.84715 10.1562 5.46875C10.1562 6.09035 9.90932 6.68649 9.46978 7.12603C9.03024 7.56557 8.4341 7.8125 7.8125 7.8125C7.1909 7.8125 6.59476 7.56557 6.15522 7.12603C5.71568 6.68649 5.46875 6.09035 5.46875 5.46875ZM3.125 11.8481C3.125 10.0513 4.58252 8.59375 6.37939 8.59375H9.24561C11.0425 8.59375 12.5 10.0513 12.5 11.8481C12.5 12.207 12.2095 12.5 11.8481 12.5H3.77686C3.41797 12.5 3.125 12.2095 3.125 11.8481Z" fill="#00C6FF"/>
</g>
<defs>
<clipPath id="clip0_157_10507">
<path d="M0 0H15.625V12.5H0V0Z" fill="white"/>
</clipPath>
</defs>
</svg>
