<svg width="13" height="13" viewBox="0 0 13 13" fill="none" xmlns="http://www.w3.org/2000/svg">
<g clip-path="url(#clip0_158_10541)">
<path d="M3.82284 9.39638L3.06844 8.64198C2.86092 8.43446 2.78768 8.13417 2.88046 7.85585C2.9537 7.63856 3.05135 7.35536 3.16854 7.03065H0.585534C0.375573 7.03065 0.18026 6.91835 0.07528 6.73524C-0.0297004 6.55214 -0.027259 6.32753 0.0801628 6.14686L1.3619 3.98622C1.67928 3.45155 2.25301 3.1244 2.87313 3.1244H4.88241C4.941 3.02675 4.9996 2.93642 5.05819 2.84852C7.0577 -0.100694 10.0362 -0.19835 11.8136 0.128798C12.0968 0.180068 12.3165 0.402236 12.3702 0.685439C12.6973 2.46522 12.5973 5.4413 9.65047 7.44081C9.56503 7.4994 9.47225 7.558 9.3746 7.61659V9.62587C9.3746 10.246 9.04745 10.8222 8.51278 11.1371L6.35214 12.4188C6.17147 12.5263 5.94686 12.5287 5.76376 12.4237C5.58065 12.3187 5.46835 12.1259 5.46835 11.9135V9.29628C5.12411 9.41591 4.82381 9.51356 4.59676 9.58681C4.32333 9.6747 4.02548 9.59901 3.8204 9.39638H3.82284ZM9.3746 4.10097C9.6336 4.10097 9.88199 3.99808 10.0651 3.81494C10.2483 3.6318 10.3512 3.3834 10.3512 3.1244C10.3512 2.8654 10.2483 2.61701 10.0651 2.43387C9.88199 2.25073 9.6336 2.14784 9.3746 2.14784C9.1156 2.14784 8.8672 2.25073 8.68406 2.43387C8.50092 2.61701 8.39803 2.8654 8.39803 3.1244C8.39803 3.3834 8.50092 3.6318 8.68406 3.81494C8.8672 3.99808 9.1156 4.10097 9.3746 4.10097Z" fill="#00C6FF"/>
</g>
<defs>
<clipPath id="clip0_158_10541">
<path d="M0 0H12.5V12.5H0V0Z" fill="white"/>
</clipPath>
</defs>
</svg>
