<svg width="20" height="18" viewBox="0 0 20 18" fill="none" xmlns="http://www.w3.org/2000/svg">
<path fill-rule="evenodd" clip-rule="evenodd" d="M1.172 16.828C2.343 18 4.229 18 8 18H11.93C11.6494 17.5177 11.5011 16.97 11.5 16.412C11.5 15.596 11.82 14.82 12.357 14.25H11.5C11.0858 14.25 10.75 13.9142 10.75 13.5C10.75 13.0858 11.0858 12.75 11.5 12.75H13.428C13.939 11.46 15.155 10.5 16.667 10.5C18.227 10.5 19.477 11.528 19.955 12.88L19.969 12.89C20 12.074 20 11.12 20 10V9.75H0V10C0 13.771 0 15.657 1.172 16.828ZM4 15.25C3.58579 15.25 3.25 14.9142 3.25 14.5V12.5C3.25 12.0858 3.58579 11.75 4 11.75C4.41421 11.75 4.75 12.0858 4.75 12.5V14.5C4.75 14.9142 4.41421 15.25 4 15.25ZM7 15.25C6.58579 15.25 6.25 14.9142 6.25 14.5V12.5C6.25 12.0858 6.58579 11.75 7 11.75C7.41421 11.75 7.75 12.0858 7.75 12.5V14.5C7.75 14.9142 7.41421 15.25 7 15.25ZM1.172 1.172C0 2.343 0 4.229 0 8V8.25H20V8C20 4.229 20 2.343 18.828 1.172C17.656 0.00100005 15.771 0 12 0H8C4.229 0 2.343 0 1.172 1.172ZM7 6.25C6.58579 6.25 6.25 5.91421 6.25 5.5V3.5C6.25 3.08579 6.58579 2.75 7 2.75C7.41421 2.75 7.75 3.08579 7.75 3.5V5.5C7.75 5.91421 7.41421 6.25 7 6.25ZM3.25 5.5C3.25 5.91421 3.58579 6.25 4 6.25C4.41421 6.25 4.75 5.91421 4.75 5.5V3.5C4.75 3.08579 4.41421 2.75 4 2.75C3.58579 2.75 3.25 3.08579 3.25 3.5V5.5ZM10.75 4.5C10.75 4.08579 11.0858 3.75 11.5 3.75H16C16.4142 3.75 16.75 4.08579 16.75 4.5C16.75 4.91421 16.4142 5.25 16 5.25H11.5C11.0858 5.25 10.75 4.91421 10.75 4.5Z" fill="#2563EB"/>
</svg>
