<svg width="18" height="20" viewBox="0 0 18 20" fill="none" xmlns="http://www.w3.org/2000/svg">
<path fill-rule="evenodd" clip-rule="evenodd" d="M0.378 3.082C0 3.62 0 5.22 0 8.417V9.991C0 15.629 4.239 18.366 6.899 19.527C7.62 19.842 7.981 20 9 20C10.02 20 10.38 19.842 11.101 19.527C13.761 18.365 18 15.63 18 9.991V8.417C18 5.219 18 3.62 17.622 3.082C17.245 2.545 15.742 2.03 12.735 1.001L12.162 0.805C10.595 0.268 9.812 0 9 0C8.188 0 7.405 0.268 5.838 0.805L5.265 1C2.258 2.03 0.755 2.545 0.378 3.082ZM12.06 8.5C12.2385 8.29993 12.2966 8.01986 12.2126 7.76528C12.1285 7.5107 11.9151 7.32029 11.6526 7.26578C11.3901 7.21126 11.1185 7.30093 10.94 7.501L7.929 10.875L7.059 9.901C6.7822 9.59514 6.31036 9.57023 6.0029 9.84524C5.69543 10.1203 5.66778 10.5919 5.941 10.901L7.369 12.501C7.5113 12.6604 7.71483 12.7515 7.9285 12.7515C8.14217 12.7515 8.3457 12.6604 8.488 12.501L12.06 8.5Z" fill="#00A63E"/>
</svg>
