<svg width="20" height="28" viewBox="0 0 20 28" fill="none" xmlns="http://www.w3.org/2000/svg">
<path d="M10 0C7.82292 0 5.96875 1.43408 5.28646 3.4375H3.33333C1.49479 3.4375 0 4.979 0 6.875V24.0625C0 25.9585 1.49479 27.5 3.33333 27.5H16.6667C18.5052 27.5 20 25.9585 20 24.0625V6.875C20 4.979 18.5052 3.4375 16.6667 3.4375H14.7135C14.0312 1.43408 12.1771 0 10 0ZM10 3.4375C10.442 3.4375 10.8659 3.61858 11.1785 3.94091C11.4911 4.26324 11.6667 4.70041 11.6667 5.15625C11.6667 5.61209 11.4911 6.04926 11.1785 6.37159C10.8659 6.69392 10.442 6.875 10 6.875C9.55797 6.875 9.13405 6.69392 8.82149 6.37159C8.50893 6.04926 8.33333 5.61209 8.33333 5.15625C8.33333 4.70041 8.50893 4.26324 8.82149 3.94091C9.13405 3.61858 9.55797 3.4375 10 3.4375ZM3.75 14.6094C3.75 14.2675 3.8817 13.9396 4.11612 13.6979C4.35054 13.4561 4.66848 13.3203 5 13.3203C5.33152 13.3203 5.64946 13.4561 5.88388 13.6979C6.1183 13.9396 6.25 14.2675 6.25 14.6094C6.25 14.9513 6.1183 15.2791 5.88388 15.5209C5.64946 15.7626 5.33152 15.8984 5 15.8984C4.66848 15.8984 4.35054 15.7626 4.11612 15.5209C3.8817 15.2791 3.75 14.9513 3.75 14.6094ZM9.16667 13.75H15.8333C16.2917 13.75 16.6667 14.1367 16.6667 14.6094C16.6667 15.082 16.2917 15.4688 15.8333 15.4688H9.16667C8.70833 15.4688 8.33333 15.082 8.33333 14.6094C8.33333 14.1367 8.70833 13.75 9.16667 13.75ZM3.75 19.7656C3.75 19.4237 3.8817 19.0959 4.11612 18.8541C4.35054 18.6124 4.66848 18.4766 5 18.4766C5.33152 18.4766 5.64946 18.6124 5.88388 18.8541C6.1183 19.0959 6.25 19.4237 6.25 19.7656C6.25 20.1075 6.1183 20.4354 5.88388 20.6771C5.64946 20.9189 5.33152 21.0547 5 21.0547C4.66848 21.0547 4.35054 20.9189 4.11612 20.6771C3.8817 20.4354 3.75 20.1075 3.75 19.7656ZM8.33333 19.7656C8.33333 19.293 8.70833 18.9062 9.16667 18.9062H15.8333C16.2917 18.9062 16.6667 19.293 16.6667 19.7656C16.6667 20.2383 16.2917 20.625 15.8333 20.625H9.16667C8.70833 20.625 8.33333 20.2383 8.33333 19.7656Z" fill="#0077FF"/>
</svg>
