<svg width="18" height="18" viewBox="0 0 18 18" fill="none" xmlns="http://www.w3.org/2000/svg">
<path d="M12 7H10V2H2V16H12V18H0V0H12V7ZM11.208 8C11.7112 8.00026 12.2072 8.11879 12.6561 8.34604C13.105 8.57329 13.4942 8.90288 13.7923 9.30822C14.0904 9.71357 14.2891 10.1833 14.3722 10.6796C14.4554 11.1758 14.4207 11.6846 14.271 12.165L17.481 15.374C17.7544 15.6546 17.9063 16.0317 17.9038 16.4235C17.9012 16.8153 17.7444 17.1903 17.4674 17.4674C17.1903 17.7444 16.8153 17.9012 16.4235 17.9038C16.0317 17.9063 15.6546 17.7544 15.374 17.481L12.165 14.271C11.6039 14.4464 11.0054 14.4644 10.4349 14.3229C9.8643 14.1814 9.34356 13.8859 8.92948 13.4686C8.5154 13.0513 8.2239 12.5283 8.0868 11.9567C7.94969 11.385 7.97225 10.7867 8.152 10.227L9.67 11.743L11.03 11.29L11.29 11.03L11.743 9.672L10.223 8.154C10.533 8.054 10.865 8 11.208 8ZM8 5H4V4H8V5Z" fill="#0077FF"/>
</svg>
