<svg width="24" height="19" viewBox="0 0 24 19" fill="none" xmlns="http://www.w3.org/2000/svg">
<path d="M14.7302 0.04653C14.0927 -0.135268 13.4289 0.232038 13.2451 0.862764L8.44472 17.4843C8.26096 18.115 8.63224 18.7717 9.26979 18.9535C9.90734 19.1353 10.5711 18.768 10.7549 18.1372L15.5553 1.51575C15.739 0.885025 15.3678 0.228328 14.7302 0.04653ZM17.753 4.50242C17.2842 4.96619 17.2842 5.71935 17.753 6.18312L21.102 9.5L17.7492 12.8169C17.2804 13.2806 17.2804 14.0338 17.7492 14.4976C18.218 14.9613 18.9793 14.9613 19.4481 14.4976L23.6484 10.3422C24.1172 9.87844 24.1172 9.12527 23.6484 8.66151L19.4481 4.50613C18.9793 4.04237 18.218 4.04237 17.7492 4.50613L17.753 4.50242ZM6.2508 4.50242C5.78201 4.03865 5.02071 4.03865 4.55192 4.50242L0.35159 8.6578C-0.117197 9.12156 -0.117197 9.87473 0.35159 10.3385L4.55192 14.4939C5.02071 14.9576 5.78201 14.9576 6.2508 14.4939C6.71959 14.0301 6.71959 13.2769 6.2508 12.8132L2.89804 9.5L6.2508 6.18312C6.71959 5.71935 6.71959 4.96619 6.2508 4.50242Z" fill="#0077FF"/>
</svg>
