<svg width="22" height="20" viewBox="0 0 22 20" fill="none" xmlns="http://www.w3.org/2000/svg">
<path d="M12.4306 14.3402C13.5349 14.1879 14.53 13.5824 15.1489 12.6645L21.6898 2.89559C22.1995 2.13392 22.0701 1.12617 21.3824 0.505114C20.6947 -0.115942 19.647 -0.170626 18.8947 0.376215L9.31991 7.31329C8.34909 8.01637 7.77468 9.11396 7.76659 10.2858L12.4306 14.3402ZM11.6378 15.3323L6.94544 11.2544C4.52647 11.3404 2.58886 13.266 2.58886 15.6253C2.58886 15.7776 2.59695 15.9299 2.61313 16.0784C2.68595 16.7619 2.20053 17.5002 1.4886 17.5002H1.29443C0.578449 17.5002 0 18.0587 0 18.7501C0 19.4414 0.578449 20 1.29443 20H7.11938C9.62329 20 11.6499 18.0431 11.6499 15.6253C11.6499 15.5276 11.6458 15.43 11.6418 15.3323H11.6378Z" fill="#0077FF"/>
</svg>
