<svg width="13" height="13" viewBox="0 0 13 13" fill="none" xmlns="http://www.w3.org/2000/svg">
<path d="M7.14737 0.439453C7.01798 0.170898 6.74454 0 6.44425 0C6.14396 0 5.87296 0.170898 5.74112 0.439453L4.1713 3.66943L0.665441 4.18701C0.372472 4.23096 0.128331 4.43604 0.0379992 4.7168C-0.0523329 4.99756 0.0209092 5.30762 0.23087 5.51514L2.77482 8.03223L2.17423 11.5894C2.1254 11.8823 2.24747 12.1802 2.48917 12.3535C2.73087 12.5269 3.05069 12.5488 3.31437 12.4097L6.44669 10.7373L9.57902 12.4097C9.84269 12.5488 10.1625 12.5293 10.4042 12.3535C10.6459 12.1777 10.768 11.8823 10.7192 11.5894L10.1161 8.03223L12.6601 5.51514C12.87 5.30762 12.9457 4.99756 12.8529 4.7168C12.7602 4.43604 12.5185 4.23096 12.2255 4.18701L8.7172 3.66943L7.14737 0.439453Z" fill="#00C6FF"/>
</svg>
