<svg width="17" height="17" viewBox="0 0 17 17" fill="none" xmlns="http://www.w3.org/2000/svg">
<path fill-rule="evenodd" clip-rule="evenodd" d="M8.809 14.377L14.656 8.547C15.498 7.708 15.919 7.288 16.14 6.755C16.361 6.222 16.362 5.627 16.362 4.44V3.873C16.362 2.047 16.362 1.134 15.793 0.567C15.224 0 14.309 0 12.478 0H11.908C10.718 0 10.123 0 9.588 0.221C9.052 0.442 8.631 0.862 7.788 1.701L1.942 7.531C0.958 8.511 0.348 9.12 0.112 9.707C0.0388972 9.8854 0.000870032 10.0762 0 10.269C0 11.071 0.647 11.717 1.942 13.008L2.116 13.181L4.154 11.112C4.44478 10.8168 4.9198 10.8132 5.215 11.104C5.5102 11.3948 5.51378 11.8698 5.223 12.165L3.178 14.24L3.315 14.377C4.61 15.667 5.258 16.313 6.062 16.313C6.24 16.313 6.41 16.282 6.581 16.219C7.184 15.997 7.8 15.383 8.809 14.377ZM11.556 7.531C10.7966 8.28759 9.56838 8.28759 8.809 7.531C8.44443 7.16871 8.23942 6.67597 8.23942 6.162C8.23942 5.64803 8.44443 5.15529 8.809 4.793C9.56838 4.03641 10.7966 4.03641 11.556 4.793C11.9206 5.15529 12.1256 5.64803 12.1256 6.162C12.1256 6.67597 11.9206 7.16871 11.556 7.531Z" fill="#0369A1"/>
</svg>
