<svg width="21" height="13" viewBox="0 0 21 13" fill="none" xmlns="http://www.w3.org/2000/svg">
<path d="M19.77 1.30551C19.8443 1.23807 19.9044 1.1564 19.9466 1.06533C19.9888 0.974258 20.0123 0.875643 20.0157 0.775326C20.0191 0.67501 20.0023 0.575034 19.9663 0.481322C19.9304 0.387611 19.876 0.30207 19.8063 0.229769C19.7367 0.157468 19.6533 0.0998776 19.561 0.0604106C19.4687 0.0209437 19.3694 0.000402983 19.2691 5.87038e-06C19.1687 -0.000391242 19.0693 0.019363 18.9767 0.0580985C18.8841 0.0968339 18.8002 0.153762 18.73 0.22551L11.98 6.72551C11.9057 6.79295 11.8456 6.87462 11.8034 6.96569C11.7612 7.05676 11.7377 7.15538 11.7343 7.25569C11.7309 7.35601 11.7477 7.45599 11.7837 7.5497C11.8196 7.64341 11.874 7.72895 11.9437 7.80125C12.0133 7.87355 12.0967 7.93114 12.189 7.97061C12.2813 8.01008 12.3806 8.03062 12.4809 8.03102C12.5813 8.03141 12.6807 8.01166 12.7733 7.97292C12.8659 7.93419 12.9498 7.87726 13.02 7.80551L19.77 1.30551ZM16.987 0.51551H2.55C1.8737 0.51551 1.2251 0.78417 0.746878 1.26239C0.26866 1.74061 0 2.38921 0 3.06551V9.96551C0 10.3004 0.0659578 10.632 0.194107 10.9414C0.322257 11.2507 0.510088 11.5318 0.746878 11.7686C0.983667 12.0054 1.26478 12.1933 1.57416 12.3214C1.88354 12.4496 2.21513 12.5155 2.55 12.5155H17.45C17.7849 12.5155 18.1165 12.4496 18.4258 12.3214C18.7352 12.1933 19.0163 12.0054 19.2531 11.7686C19.4899 11.5318 19.6777 11.2507 19.8059 10.9414C19.934 10.632 20 10.3004 20 9.96551V3.06551C20 2.88018 19.981 2.70084 19.943 2.52751L13.713 8.52651C13.3786 8.84835 12.93 9.02415 12.4659 9.01525C12.0019 9.00634 11.5603 8.81345 11.2385 8.47901C10.9167 8.14457 10.7409 7.69598 10.7498 7.23192C10.7587 6.76786 10.9516 6.32635 11.286 6.00451L16.987 0.51551ZM2.5 4.76551C2.5 4.5666 2.57902 4.37583 2.71967 4.23518C2.86032 4.09453 3.05109 4.01551 3.25 4.01551H5.25C5.44891 4.01551 5.63968 4.09453 5.78033 4.23518C5.92098 4.37583 6 4.5666 6 4.76551C6 4.96442 5.92098 5.15519 5.78033 5.29584C5.63968 5.43649 5.44891 5.51551 5.25 5.51551H3.25C3.05109 5.51551 2.86032 5.43649 2.71967 5.29584C2.57902 5.15519 2.5 4.96442 2.5 4.76551ZM2.5 8.26551C2.5 8.0666 2.57902 7.87583 2.71967 7.73518C2.86032 7.59453 3.05109 7.51551 3.25 7.51551H8.25C8.44891 7.51551 8.63968 7.59453 8.78033 7.73518C8.92098 7.87583 9 8.0666 9 8.26551C9 8.46442 8.92098 8.65519 8.78033 8.79584C8.63968 8.93649 8.44891 9.01551 8.25 9.01551H3.25C3.05109 9.01551 2.86032 8.93649 2.71967 8.79584C2.57902 8.65519 2.5 8.46442 2.5 8.26551Z" fill="#0077FF"/>
</svg>
