<svg width="20" height="20" viewBox="0 0 20 20" fill="none" xmlns="http://www.w3.org/2000/svg">
<path d="M9.16016 0.147609C9.70312 -0.0492029 10.2969 -0.0492029 10.8438 0.147609L18.3438 2.84787C19.3359 3.20606 20 4.15469 20 5.22141V14.7786C20 15.8414 19.3359 16.7939 18.3398 17.1521L10.8398 19.8524C10.2969 20.0492 9.70312 20.0492 9.15625 19.8524L1.65625 17.1521C0.664063 16.7939 0 15.8453 0 14.7786V5.22141C0 4.15863 0.664062 3.20606 1.66016 2.84787L9.16016 0.147609ZM10 2.52116L3.21484 4.96162L10 7.40209L16.7852 4.96162L10 2.52116ZM11.25 17.0301L17.5 14.7825V7.38241L11.25 9.63V17.0301Z" fill="#0077FF"/>
</svg>
